<svg id="visual" viewBox="0 0 900 600" width="900" height="600" xmlns="http://www.w3.org/2000/svg" xmlns:xlink="http://www.w3.org/1999/xlink" version="1.1"><rect width="900" height="600" fill="#121212"></rect><g><g transform="translate(148 552)"><path d="M0 -85.9L42.9 -74.4L74.4 -42.9L85.9 0L74.4 42.9L42.9 74.4L0 85.9L-42.9 74.4L-74.4 42.9L-85.9 0L-74.4 -42.9L-42.9 -74.4Z" fill="none" stroke="#ffcc33" stroke-width="2"></path></g><g transform="translate(711 165)"><path d="M0 -37L18.5 -32L32 -18.5L37 0L32 18.5L18.5 32L0 37L-18.5 32L-32 18.5L-37 0L-32 -18.5L-18.5 -32Z" fill="none" stroke="#ffcc33" stroke-width="2"></path></g><g transform="translate(77 246)"><path d="M0 -73L36.5 -63.2L63.2 -36.5L73 0L63.2 36.5L36.5 63.2L0 73L-36.5 63.2L-63.2 36.5L-73 0L-63.2 -36.5L-36.5 -63.2Z" fill="none" stroke="#ffcc33" stroke-width="2"></path></g><g transform="translate(199 6)"><path d="M0 -56L28 -48.5L48.5 -28L56 0L48.5 28L28 48.5L0 56L-28 48.5L-48.5 28L-56 0L-48.5 -28L-28 -48.5Z" stroke="#ffcc33" fill="none" stroke-width="2"></path></g><g transform="translate(638 461)"><path d="M0 -32L16 -27.7L27.7 -16L32 0L27.7 16L16 27.7L0 32L-16 27.7L-27.7 16L-32 0L-27.7 -16L-16 -27.7Z" stroke="#ffcc33" fill="none" stroke-width="2"></path></g><g transform="translate(417 283)"><path d="M0 -75L37.5 -65L65 -37.5L75 0L65 37.5L37.5 65L0 75L-37.5 65L-65 37.5L-75 0L-65 -37.5L-37.5 -65Z" stroke="#ffcc33" fill="none" stroke-width="2"></path></g><g transform="translate(892 375)"><path d="M0 -37L18.5 -32L32 -18.5L37 0L32 18.5L18.5 32L0 37L-18.5 32L-32 18.5L-37 0L-32 -18.5L-18.5 -32Z" stroke="#ffcc33" fill="none" stroke-width="2"></path></g><g transform="translate(405 50)"><path d="M0 -70L35 -60.6L60.6 -35L70 0L60.6 35L35 60.6L0 70L-35 60.6L-60.6 35L-70 0L-60.6 -35L-35 -60.6Z" stroke="#ffcc33" fill="none" stroke-width="2"></path></g></g></svg>